<?xml version="1.0" encoding="utf-8"?>
<!-- Generator: Adobe Illustrator 16.0.4, SVG Export Plug-In . SVG Version: 6.00 Build 0)  -->
<!DOCTYPE svg PUBLIC "-//W3C//DTD SVG 1.1//EN" "http://www.w3.org/Graphics/SVG/1.1/DTD/svg11.dtd">
<svg version="1.1" id="Ebene_1" xmlns="http://www.w3.org/2000/svg" xmlns:xlink="http://www.w3.org/1999/xlink" x="0px" y="0px"
	 width="252px" height="47.52px" viewBox="0 0 252 47.52" enable-background="new 0 0 252 47.52" xml:space="preserve">
<title>Combined Shape</title>
<desc>Created with Sketch.</desc>
<g id="Sectionpages">
	
		<g id="_x30_3-Sectionpages_x2F_03a_x5F_Section_x5F_Commercial-Aircraft_x5F_Updated" transform="translate(-105.000000, -65.000000)">
		<g id="Nav" transform="translate(104.000000, 10.000000)">
			<path id="Combined-Shape" fill="#FFFFFF" d="M117.886,72.24c0,7.652-4.097,12.017-10.445,13.493
				c-0.068,0,10.172,15.846,10.172,15.846h-12.424l-15.02-23.565h10.582c4.572,0,6.279-2.484,6.279-5.506
				c0-2.954-1.637-5.505-6.211-5.505H88.463v34.576H77.541v-44.11h23.21C112.287,57.469,117.886,63.848,117.886,72.24z
				 M57.788,101.579v-44.11h10.923v44.11H57.788z M23.869,57.469h9.693l22.869,44.11h-12.56L28.579,71.367h-0.137L21.64,84.928
				h9.191l4.574,9.266H16.992l-3.705,7.386H1L23.869,57.469z M156.664,78.685c4.299,1.479,7.235,5.373,7.235,10.542
				c0,7.453-6.076,12.353-15.359,12.353h-26.557v-44.11h25.534c9.076,0,14.473,4.767,14.473,11.883
				C161.99,73.784,160.146,76.806,156.664,78.685z M147.788,92.315c2.662,0,4.711-1.948,4.711-4.566
				c0-2.552-2.049-4.432-4.711-4.432h-14.882v8.998H147.788z M132.906,66.802v7.788h14.542c2.254,0,3.961-1.679,3.961-3.895
				s-1.707-3.894-3.892-3.894H132.906z M198.727,82.109v-24.64h11.195v23.834c0,13.63-7.371,21.216-20.546,21.216
				s-20.48-7.586-20.48-21.216V57.469h11.195v24.64c0,6.695,3.142,10.406,9.285,10.406
				C195.587,92.516,198.727,88.805,198.727,82.109z M226.171,67.822c0,2.92,2.262,3.158,12.63,5.642
				C248.429,75.746,253,80.21,253,87.16c0,8.661-6.759,13.831-18.091,13.831c-8.121,0-16.18-1.813-21.57-4.635l3.344-9.398
				c4.95,2.667,11.128,4.297,17.954,4.297c4.709,0,7.101-1.167,7.101-3.76c0-2.387-1.85-3.561-10.513-5.437
				c-11.13-2.353-15.977-5.669-15.977-13.832c0-7.587,6.486-13.227,18.023-13.227c7.714,0,14.335,1.678,18.841,4.029l-3.481,8.996
				c-3.516-2.127-9.695-3.559-15.497-3.559C228.766,64.466,226.171,65.564,226.171,67.822z"/>
		</g>
	</g>
</g>
</svg>
